<svg xmlns="http://www.w3.org/2000/svg" width="49" height="49" viewBox="0 0 49 49" fill="none">
<path d="M13.1996 0.600098C12.3307 0.599643 11.483 0.868696 10.7734 1.37018C10.0638 1.87166 9.52725 2.58088 9.23761 3.4001H4.79961C3.6857 3.4001 2.61741 3.8426 1.82976 4.63025C1.04211 5.4179 0.599609 6.48619 0.599609 7.6001V41.2001C0.599609 42.314 1.04211 43.3823 1.82976 44.1699C2.61741 44.9576 3.6857 45.4001 4.79961 45.4001H23.7192C23.0061 44.5364 22.3892 43.5975 21.8796 42.6001H4.79961C4.42831 42.6001 4.07221 42.4526 3.80966 42.1901C3.54711 41.9275 3.39961 41.5714 3.39961 41.2001V7.6001C3.39961 7.2288 3.54711 6.8727 3.80966 6.61015C4.07221 6.3476 4.42831 6.2001 4.79961 6.2001H9.23761C9.52725 7.01932 10.0638 7.72854 10.7734 8.23002C11.483 8.7315 12.3307 9.00055 13.1996 9.0001H21.5996C22.4685 9.00055 23.3162 8.7315 24.0258 8.23002C24.7354 7.72854 25.272 7.01932 25.5616 6.2001H29.9996C30.3709 6.2001 30.727 6.3476 30.9896 6.61015C31.2521 6.8727 31.3996 7.2288 31.3996 7.6001V20.7797C32.3149 20.5206 33.2522 20.3472 34.1996 20.2617V7.6001C34.1996 6.48619 33.7571 5.4179 32.9695 4.63025C32.1818 3.8426 31.1135 3.4001 29.9996 3.4001H25.5616C25.272 2.58088 24.7354 1.87166 24.0258 1.37018C23.3162 0.868696 22.4685 0.599643 21.5996 0.600098H13.1996ZM11.7996 4.8001C11.7996 4.4288 11.9471 4.0727 12.2097 3.81015C12.4722 3.5476 12.8283 3.4001 13.1996 3.4001H21.5996C21.9709 3.4001 22.327 3.5476 22.5896 3.81015C22.8521 4.0727 22.9996 4.4288 22.9996 4.8001C22.9996 5.1714 22.8521 5.5275 22.5896 5.79005C22.327 6.0526 21.9709 6.2001 21.5996 6.2001H13.1996C12.8283 6.2001 12.4722 6.0526 12.2097 5.79005C11.9471 5.5275 11.7996 5.1714 11.7996 4.8001ZM25.3908 22.5913C25.6537 22.3284 25.8014 21.9719 25.8014 21.6001C25.8014 21.2283 25.6537 20.8718 25.3908 20.6089C25.1279 20.346 24.7714 20.1983 24.3996 20.1983C24.0278 20.1983 23.6713 20.346 23.4084 20.6089L14.5996 29.4205L11.3908 26.2089C11.2606 26.0787 11.1061 25.9755 10.936 25.905C10.766 25.8346 10.5837 25.7983 10.3996 25.7983C10.2155 25.7983 10.0332 25.8346 9.86318 25.905C9.69311 25.9755 9.53858 26.0787 9.40841 26.2089C9.27824 26.3391 9.17499 26.4936 9.10454 26.6637C9.0341 26.8337 8.99784 27.016 8.99784 27.2001C8.99784 27.3842 9.0341 27.5665 9.10454 27.7365C9.17499 27.9066 9.27824 28.0611 9.40841 28.1913L13.6084 32.3913C13.7385 32.5217 13.8929 32.6251 14.063 32.6957C14.2331 32.7663 14.4155 32.8026 14.5996 32.8026C14.7838 32.8026 14.9661 32.7663 15.1362 32.6957C15.3063 32.6251 15.4608 32.5217 15.5908 32.3913L25.3908 22.5913ZM48.1996 35.6001C48.1996 38.9418 46.8721 42.1467 44.5092 44.5096C42.1462 46.8726 38.9413 48.2001 35.5996 48.2001C32.2579 48.2001 29.053 46.8726 26.6901 44.5096C24.3271 42.1467 22.9996 38.9418 22.9996 35.6001C22.9996 32.2584 24.3271 29.0535 26.6901 26.6906C29.053 24.3276 32.2579 23.0001 35.5996 23.0001C38.9413 23.0001 42.1462 24.3276 44.5092 26.6906C46.8721 29.0535 48.1996 32.2584 48.1996 35.6001ZM36.9996 30.0001C36.9996 29.6288 36.8521 29.2727 36.5896 29.0101C36.327 28.7476 35.9709 28.6001 35.5996 28.6001C35.2283 28.6001 34.8722 28.7476 34.6097 29.0101C34.3471 29.2727 34.1996 29.6288 34.1996 30.0001V34.2001H29.9996C29.6283 34.2001 29.2722 34.3476 29.0097 34.6101C28.7471 34.8727 28.5996 35.2288 28.5996 35.6001C28.5996 35.9714 28.7471 36.3275 29.0097 36.59C29.2722 36.8526 29.6283 37.0001 29.9996 37.0001H34.1996V41.2001C34.1996 41.5714 34.3471 41.9275 34.6097 42.1901C34.8722 42.4526 35.2283 42.6001 35.5996 42.6001C35.9709 42.6001 36.327 42.4526 36.5896 42.1901C36.8521 41.9275 36.9996 41.5714 36.9996 41.2001V37.0001H41.1996C41.5709 37.0001 41.927 36.8526 42.1896 36.59C42.4521 36.3275 42.5996 35.9714 42.5996 35.6001C42.5996 35.2288 42.4521 34.8727 42.1896 34.6101C41.927 34.3476 41.5709 34.2001 41.1996 34.2001H36.9996V30.0001Z" fill="#1A48E9"/>
</svg>