<svg xmlns="http://www.w3.org/2000/svg" width="45" height="49" viewBox="0 0 45 49" fill="none">
<path d="M43.4045 31.0955L43.4046 31.0955C43.6777 31.3685 43.8312 31.7389 43.8312 32.125V37.0938C43.8312 37.48 43.6778 37.8504 43.4047 38.1235C43.1316 38.3966 42.7612 38.55 42.375 38.55H30.7812H30.5812V38.75V40.406C30.58 41.5352 30.3424 42.6515 29.8838 43.6833C29.4252 44.7151 28.7557 45.6395 27.9184 46.397C27.0811 47.1546 26.0946 47.7285 25.0221 48.0818C23.9506 48.4349 22.8171 48.5599 21.6943 48.449C19.6597 48.189 17.7923 47.1877 16.4499 45.6367C15.1068 44.085 14.3835 42.0923 14.4187 40.0403H14.4187V40.0369V38.75V38.55H14.2188H2.625C2.23878 38.55 1.86838 38.3966 1.59528 38.1235C1.32218 37.8504 1.16875 37.48 1.16875 37.0938V32.125C1.16875 32.125 1.16875 32.125 1.16875 32.125C1.16884 31.7388 1.32232 31.3685 1.59543 31.0955L1.59545 31.0955L6.07892 26.612L6.1375 26.5534V26.4706V20.5315C6.14257 16.4765 7.65102 12.5675 10.3712 9.56023C13.0913 6.55297 16.8299 4.66113 20.864 4.25053L21.0438 4.23224V4.05156V0.85625H23.9562V4.05156V4.23224L24.136 4.25053C28.1701 4.66113 31.9087 6.55297 34.6288 9.56023C37.349 12.5675 38.8574 16.4765 38.8625 20.5315V26.4706V26.5534L38.9211 26.612L43.4045 31.0955ZM17.5312 38.55H17.3312V38.75V40.4062C17.3312 41.7771 17.8758 43.0918 18.8451 44.0611C19.8145 45.0304 21.1292 45.575 22.5 45.575C23.8708 45.575 25.1855 45.0304 26.1549 44.0611C27.1242 43.0918 27.6688 41.7771 27.6688 40.4062V38.75V38.55H27.4688H17.5312ZM40.7188 35.6375H40.9188V35.4375V32.8107V32.7278L40.8602 32.6693L36.3767 28.1858L36.3767 28.1858C36.1036 27.9127 35.9501 27.5424 35.95 27.1562V20.5312C35.95 16.9641 34.533 13.543 32.0106 11.0207C29.4882 8.4983 26.0672 7.08125 22.5 7.08125C18.9328 7.08125 15.5118 8.4983 12.9894 11.0207C10.467 13.543 9.05 16.9641 9.05 20.5312V27.1562C9.05 27.1562 9.05 27.1562 9.05 27.1562C9.04991 27.5424 8.89643 27.9128 8.62332 28.1858L8.6233 28.1858L4.13983 32.6693L4.08125 32.7278V32.8107V35.4375V35.6375H4.28125H40.7188Z" fill="#E23120" stroke="#FEF4F3" stroke-width="0.4"/>
</svg>