<svg xmlns="http://www.w3.org/2000/svg" width="22" height="15" viewBox="0 0 22 15" fill="none">
<path d="M11 14.1032C5.28387 14.1032 0.787183 7.89055 0.607038 7.6365C0.537414 7.53871 0.5 7.42166 0.5 7.30162C0.5 7.18158 0.537414 7.06452 0.607038 6.96673C0.796421 6.70113 5.2908 0.5 11 0.5C16.7092 0.5 21.2128 6.71268 21.393 6.96673C21.4626 7.06452 21.5 7.18158 21.5 7.30162C21.5 7.42166 21.4626 7.53871 21.393 7.6365C21.2128 7.89055 16.7161 14.1032 11 14.1032ZM1.79645 7.29007C2.79649 8.55339 6.59569 12.9485 11 12.9485C15.4043 12.9485 19.2035 8.56032 20.2035 7.29007C19.2035 6.02675 15.4043 1.63168 11 1.63168C6.59569 1.63168 2.79649 6.02675 1.79645 7.29007ZM11 10.9853C10.2691 10.9853 9.5547 10.7686 8.94702 10.3626C8.33933 9.95654 7.8657 9.37941 7.58601 8.70419C7.30632 8.02897 7.23315 7.28597 7.37573 6.56916C7.51831 5.85234 7.87025 5.19391 8.38705 4.67711C8.90384 4.16032 9.56228 3.80838 10.2791 3.6658C10.9959 3.52321 11.7389 3.59639 12.4141 3.87608C13.0893 4.15577 13.6665 4.6294 14.0725 5.23708C14.4786 5.84477 14.6953 6.55921 14.6953 7.29007C14.6953 8.27012 14.306 9.21002 13.613 9.90302C12.92 10.596 11.98 10.9853 11 10.9853ZM11 4.74957C10.4975 4.74957 10.0064 4.89856 9.58857 5.17772C9.17079 5.45687 8.84517 5.85364 8.65288 6.31786C8.4606 6.78208 8.41029 7.29289 8.50831 7.7857C8.60634 8.2785 8.8483 8.73118 9.2036 9.08648C9.55889 9.44177 10.0116 9.68373 10.5044 9.78176C10.9972 9.87978 11.508 9.82947 11.9722 9.63719C12.4364 9.4449 12.8332 9.11928 13.1124 8.7015C13.3915 8.28371 13.5405 7.79253 13.5405 7.29007C13.5405 6.61629 13.2728 5.9701 12.7964 5.49366C12.32 5.01723 11.6738 4.74957 11 4.74957Z" fill="#4068F6" stroke="#4068F6" stroke-width="0.3"/>
</svg>