<svg xmlns="http://www.w3.org/2000/svg" width="12" height="14" viewBox="0 0 12 14" fill="none">
<path d="M11.6676 3.50938L8.30508 0.146875C8.21133 0.053125 8.08477 0 7.95195 0H1.31445C1.03789 0 0.814453 0.223437 0.814453 0.5V13.5C0.814453 13.7766 1.03789 14 1.31445 14H11.3145C11.591 14 11.8145 13.7766 11.8145 13.5V3.86406C11.8145 3.73125 11.7613 3.60313 11.6676 3.50938ZM10.6613 4.09375H7.7207V1.15313L10.6613 4.09375ZM10.6895 12.875H1.93945V1.125H6.6582V4.5C6.6582 4.67405 6.72734 4.84097 6.85041 4.96404C6.97348 5.08711 7.1404 5.15625 7.31445 5.15625H10.6895V12.875ZM6.56602 6.375H6.06289C5.97695 6.375 5.90195 6.43281 5.88164 6.51719L5.10508 9.625L4.38477 6.52031C4.36445 6.43594 4.28945 6.375 4.20195 6.375H3.64883C3.62009 6.37504 3.59174 6.38168 3.56597 6.39441C3.5402 6.40713 3.51769 6.4256 3.50018 6.4484C3.48267 6.47119 3.47063 6.4977 3.46498 6.52588C3.45932 6.55405 3.46021 6.58316 3.46758 6.61094L4.62695 10.9234C4.64883 11.0047 4.72383 11.0625 4.8082 11.0625H5.3082C5.39258 11.0625 5.46758 11.0062 5.48945 10.9234L6.31445 7.84531L7.13945 10.9234C7.16133 11.0047 7.23633 11.0625 7.3207 11.0625H7.81758C7.90195 11.0625 7.97695 11.0062 7.99883 10.9234L9.16133 6.61094C9.16863 6.58316 9.16947 6.55408 9.16379 6.52593C9.15811 6.49777 9.14606 6.47129 9.12857 6.44852C9.11107 6.42574 9.08859 6.40727 9.06285 6.39453C9.03711 6.38179 9.0088 6.37511 8.98008 6.375H8.42383C8.33633 6.375 8.26133 6.43594 8.24102 6.52031L7.52539 9.63125L6.74727 6.51719C6.72695 6.43281 6.65195 6.375 6.56602 6.375Z" fill="#3578FF"/>
</svg>