<svg xmlns="http://www.w3.org/2000/svg" width="19" height="20" viewBox="0 0 19 20" fill="none">
<path fill-rule="evenodd" clip-rule="evenodd" d="M14.3848 13.9442L18.7228 18.3566C19.0924 18.7325 19.0924 19.3421 18.7228 19.718C18.3532 20.094 17.7539 20.094 17.3843 19.718L12.97 15.228C11.6305 16.1875 9.99703 16.751 8.23417 16.751C3.68657 16.751 0 13.0012 0 8.3755C0 3.74984 3.68657 0 8.23417 0C12.7818 0 16.4683 3.74984 16.4683 8.3755C16.4683 10.5134 15.6809 12.4642 14.3848 13.9442ZM8.23417 14.9219C11.7886 14.9219 14.6701 11.991 14.6701 8.3755C14.6701 4.76004 11.7886 1.82913 8.23417 1.82913C4.67972 1.82913 1.79827 4.76004 1.79827 8.3755C1.79827 11.991 4.67972 14.9219 8.23417 14.9219Z" fill="#114EAB"/>
</svg>